<!--<?xml version="1.0" encoding="UTF-8" standalone="no"?>
 Created with Inkscape (http://www.inkscape.org/) -->

<svg
   xmlns:dc="http://purl.org/dc/elements/1.1/"
   xmlns:cc="http://creativecommons.org/ns#"
   xmlns:rdf="http://www.w3.org/1999/02/22-rdf-syntax-ns#"
   xmlns:svg="http://www.w3.org/2000/svg"
   xmlns="http://www.w3.org/2000/svg"
   xmlns:sodipodi="http://sodipodi.sourceforge.net/DTD/sodipodi-0.dtd"
   xmlns:inkscape="http://www.inkscape.org/namespaces/inkscape"
   width="1500mm"
   height="500mm"
   viewBox="0 0 1500 500"
   version="1.1"
   id="svg5117"
   sodipodi:docname="sig.svg"
   inkscape:version="0.92.0 r15299">
  <defs
     id="defs5111" />
  <sodipodi:namedview
     id="base"
     pagecolor="#ffffff"
     bordercolor="#666666"
     borderopacity="1.0"
     inkscape:pageopacity="0.0"
     inkscape:pageshadow="2"
     inkscape:zoom="0.24748737"
     inkscape:cx="2743.1495"
     inkscape:cy="1235.9458"
     inkscape:document-units="mm"
     inkscape:current-layer="layer1"
     showgrid="false"
     inkscape:window-width="1920"
     inkscape:window-height="1017"
     inkscape:window-x="-8"
     inkscape:window-y="-8"
     inkscape:window-maximized="1" />
  <metadata
     id="metadata5114">
    <rdf:RDF>
      <cc:Work
         rdf:about="">
        <dc:format>image/svg+xml</dc:format>
        <dc:type
           rdf:resource="http://purl.org/dc/dcmitype/StillImage" />
        <dc:title></dc:title>
      </cc:Work>
    </rdf:RDF>
  </metadata>
  <g
     inkscape:label="Layer 1"
     inkscape:groupmode="layer"
     id="layer1"
     transform="translate(0,203)">
    <path class="path"
       style="fill:#000000;stroke-width:1.44397378"
       d="m 91.732916,262.47696 c -4.88622,-4.36311 -5.43531,-6.71084 -5.50747,-23.54752 -0.0639,-14.91506 3.6539,-33.84753 7.887676,-40.167 1.0659,-1.59102 1.95064,-3.58849 1.9661,-4.43884 0.066,-3.62788 18.224808,-36.79557 26.313868,-48.06304 2.93655,-4.09041 6.77371,-9.64652 8.52696,-12.34689 1.75324,-2.70039 9.02129,-12.17453 16.15117,-21.05366 11.39202,-14.186905 16.10098,-19.787922 28.21709,-33.562384 1.55629,-1.769301 6.06344,-7.16869 10.0159,-11.99864 8.28544,-10.124925 21.15891,-25.159663 22.63348,-26.433304 0.90059,-0.77787 5.94008,-15.72096 12.44156,-36.8916453 1.27558,-4.15366995 2.95235,-10.950602 3.7262,-15.1042817 0.77383,-4.15367 1.76139,-8.307351 2.19456,-9.230389 1.27749,-2.722092 5.00166,-26.916341 7.7088,-50.080403 l 2.51851,-21.550102 -2.49737,-18.842701 c -3.20855,-24.2082 -6.16985,-33.01553 -15.02339,-44.68158 -7.03379,-9.26823 -7.31967,-9.45503 -17.64667,-11.53043 -17.73086,-3.56334 -37.86571,3.191 -54.28385,18.20982 -1.75591,1.60625 -5.70648,5.11544 -8.77906,7.7982 -10.70724,9.34877 -16.81836,16.13389 -23.03767,25.57844 -16.422398,24.938771 -19.834508,35.676951 -19.819428,62.372824 0.009,16.273031 0.30694,18.456521 3.89061,28.530301 3.641198,10.235481 11.519378,23.4955397 13.959368,23.4955397 0.60116,0 1.7231,1.02557005 2.49322,2.279042 2.21435,3.604178 18.78444,14.0472393 25.61562,16.1438983 3.41659,1.048642 8.44829,2.676731 11.18158,3.61796 2.73328,0.94125 13.22096,2.534177 23.30597,3.539855 18.21929,1.816812 18.35547,1.804252 21.32568,-1.965026 3.64564,-4.62643 7.81505,-3.455728 8.9226,2.505297 1.20369,6.478331 -0.10597,8.535261 -7.41019,11.638712 -4.94109,2.099389 -9.20466,2.661089 -15.31417,2.017488 -14.11445,-1.486829 -33.30456,-5.96799 -37.1461,-8.674101 -1.99263,-1.40367 -4.24866,-2.556798 -5.01336,-2.562479 -2.5533,-0.019 -18.43341,-7.741097 -22.68143,-11.029436 -6.86899,-5.317188 -16.10241,-15.53810125 -17.70253,-19.5957693 -0.82188,-2.084131 -2.147788,-4.544542 -2.946458,-5.467581 -0.79867,-0.92303 -3.18328,-7.0395797 -5.299126,-13.5923197 -5.07272,-15.710109 -6.61696,-38.853182 -3.54496,-53.127601 5.759576,-26.762764 20.487634,-51.524894 42.074964,-70.740284 3.93034,-3.49849 7.44774,-7.02024 7.81645,-7.82612 0.36872,-0.80588 3.02332,-2.99383 5.89912,-4.8621 2.87581,-1.86828 7.46506,-5.09944 10.19835,-7.18036 9.38162,-7.14251 18.65124,-11.21922 29.59763,-13.01685 27.10664,-4.45147 43.61235,9.75351 53.63051,46.15492 4.73657,17.21057 5.63608,52.315521 1.98729,77.559684 -2.5789,17.842161 -11.33928,59.7767907 -13.76866,65.908642 -3.29006,8.304159 3.89073,7.06026 10.19892,-1.7667103 1.17272,-1.64093 3.26925,-3.471021 4.659,-4.06685 1.38975,-0.595831 2.53738,-1.598851 2.55029,-2.228929 0.013,-0.630071 2.93492,-3.41124095 6.49333,-6.180363 8.39202,-6.5305697 14.90808,-15.4645487 16.46758,-22.5782687 0.68334,-3.116969 2.08103,-6.21706 3.106,-6.889051 1.025,-0.671989 3.26131,-2.087589 4.96962,-3.14578 5.83469,-3.61424 8.40512,-6.100079 11.58322,-11.202058 3.06398,-4.918771 10.14568,-9.049811 15.51381,-9.049811 4.34774,0 9.0527,6.99412 10.76378,16.000841 l 1.58328,8.33383 5.74714,-0.558041 c 3.16089,-0.306909 5.74713,0.157591 5.74713,1.03237 0,3.51672 -5.1157,10.05423 -8.60534,10.997001 -2.54667,0.68802 -4.36685,2.732418 -5.79912,6.513489 -2.57524,6.7983997 -18.05601,29.21155 -24.0447,34.812001 -11.98819,11.211015 -22.62949,14.678846 -30.38872,9.903246 -2.68311,-1.65137 -3.15782,-3.166599 -3.47506,-11.091807 l -0.36743,-9.179171 -7.66463,7.632062 c -4.21553,4.19761 -10.05459,9.279054 -12.97567,11.292076 -5.18583,3.57373 -19.73765,22.39314 -19.73765,25.526079 0,1.558261 -12.98991,37.081934 -20.08733,54.933079 -2.01843,5.07672 -6.06515,14.13928 -8.9927,20.13903 -2.92756,5.99974 -8.51974,17.51676 -12.42708,25.59335 -3.90732,8.07659 -7.6278,14.68472 -8.26775,14.68472 -0.63993,0 -1.16351,0.72168 -1.16351,1.60372 0,2.65946 -13.28876,27.6552 -19.36867,36.43191 -1.81351,2.61789 -5.08825,8.32982 -7.2772,12.6932 -4.27488,8.52141 -19.16515,29.67625 -25.71962,36.54033 -2.20353,2.30759 -5.43949,4.6686 -7.19104,5.24669 -1.75154,0.57812 -4.023248,1.52138 -5.048218,2.09616 -1.025,0.57478 -3.52727,-0.44048 -5.560606,-2.25613 z m 9.287794,-12.63885 c 0.85066,-1.38457 2.19016,-2.51738 2.97666,-2.51738 2.73963,0 23.98679,-31.16985 28.70452,-42.10984 0.68331,-1.58456 4.28811,-7.29051 8.01061,-12.67986 3.72252,-5.38938 8.3494,-12.82515 10.28199,-16.52397 1.93257,-3.69883 5.47054,-10.50118 7.86213,-15.11636 7.6622,-14.78627 8.58163,-16.48495 11.42785,-21.11296 1.53747,-2.49994 2.7954,-5.01777 2.7954,-5.59514 0,-0.57738 1.53466,-4.24442 3.4104,-8.14901 1.87571,-3.90456 4.58577,-10.12008 6.0223,-13.81223 1.43655,-3.69216 5.43077,-13.887556 8.87604,-22.65643 3.44527,-8.768866 6.68309,-17.812115 7.19511,-20.096086 l 0.93096,-4.152699 -4.83124,4.78898 c -2.65716,2.63394 -5.66981,6.02166 -6.6948,7.52829 -1.02497,1.506641 -6.61576,8.054919 -12.42398,14.551763 -15.512,17.351112 -19.61487,22.307472 -27.7001,33.462202 -27.0518,37.32186 -34.7539,49.18482 -36.22986,55.80192 -0.46323,2.07682 -1.33376,3.77605 -1.9345,3.77605 -1.59321,0 -9.3645,16.34064 -12.884408,27.09198 -4.085776,12.47977 -5.158926,23.2736 -3.236196,32.55008 1.643586,7.92969 4.465136,9.81451 7.441114,4.9707 z M 277.796,14.105065 c 6.56513,-5.0396803 20.64104,-20.5678493 22.93564,-25.30198 1.08838,-2.24545 0.0852,-2.575319 -7.65521,-2.517381 -6.42909,0.0482 -9.82435,-0.74422 -12.20198,-2.847538 l -3.2943,-2.914211 -4.41777,7.28268 c -2.42978,4.0054897 -4.41778,8.0564697 -4.41778,9.0021807 0,0.945718 -0.87093,2.69585005 -1.9354,3.88919005 -2.0937,2.34719995 -5.51899,12.31955025 -5.51899,16.06788125 0,4.28167 9.44544,2.759008 16.50579,-2.660822 z m 22.05167,-38.87705 c 3.67467,-1.487191 4.83243,-2.925061 5.39057,-6.694659 0.9612,-6.4921 -0.0542,-9.375021 -3.62688,-10.29757 -2.16707,-0.559602 -3.52671,0.320778 -4.91477,3.1824 -1.05539,2.17582 -2.72497,3.956029 -3.71015,3.956029 -2.3143,0 -4.57194,5.704581 -3.60489,9.108821 0.88611,3.119268 4.04413,3.344058 10.46612,0.744979 z M 776.80912,262.6038 c -5.37922,-3.89696 -6.61633,-10.13428 -5.74355,-28.95809 0.6818,-14.70498 3.4766,-26.55342 8.88508,-37.66788 1.38927,-2.85501 3.92369,-8.39705 5.63197,-12.31569 1.70831,-3.91864 5.20258,-10.5024 7.76499,-14.63061 2.56249,-4.12822 4.659,-8.12837 4.659,-8.88923 0,-3.61657 41.28037,-57.51489 62.23082,-81.252564 2.33063,-2.640722 7.05199,-8.304832 10.49186,-12.586891 3.43985,-4.282082 8.37957,-10.051232 10.97712,-12.820343 11.30969,-12.05665 15.51011,-21.10282 23.76749,-51.1867173 9.81054,-35.7425597 16.50357,-84.9850337 14.30025,-105.2112847 -3.27178,-30.03514 -8.01867,-44.77324 -17.79664,-55.25522 -5.63398,-6.03955 -7.69001,-7.15335 -16.38173,-8.87438 -13.93047,-2.75832 -27.81374,0.47857 -41.81861,9.75003 -24.59313,16.28104 -42.63782,36.01204 -53.86208,58.895681 -2.03734,4.15367 -4.10953,7.96127 -4.60486,8.46134 -0.4953,0.50006 -2.36265,7.67459 -4.14959,15.943404 -2.97098,13.747711 -3.1328,16.000429 -1.89098,26.32578 2.40517,19.998989 5.75591,29.56234 14.27353,40.7380307 8.32276,10.92006 21.8331,21.0444683 32.41741,24.2930493 3.4166,1.048642 8.44831,2.676731 11.18161,3.61796 2.73325,0.94125 13.22094,2.534177 23.30596,3.539855 18.01693,1.796622 18.38626,1.765152 21.20085,-1.806625 3.59719,-4.564909 6.56976,-4.633449 8.32945,-0.192019 4.24979,10.726555 -4.98652,17.504077 -21.77629,15.979275 -19.43235,-1.764829 -38.97313,-7.482221 -52.5335,-15.370675 -2.24401,-1.30538 -5.11072,-2.373421 -6.3705,-2.373421 -1.25979,0 -3.01332,-1.176448 -3.89673,-2.61435 -0.88342,-1.437871 -3.42514,-3.640929 -5.64827,-4.895678 -7.14426,-4.0322713 -16.62949,-18.8971933 -21.94857,-34.397093 -4.67775,-13.630968 -4.88648,-14.977618 -5.07283,-32.725929 -0.1524,-14.51897 0.29599,-20.138332 2.07981,-26.062124 8.51839,-28.288451 20.21306,-47.262251 40.9185,-66.387581 22.51403,-20.7959 37.74422,-30.05886 53.59646,-32.59723 19.39581,-3.10578 31.11926,2.09175 42.27349,18.74175 3.80563,5.68063 6.9193,10.99637 6.9193,11.81275 0,0.81639 1.20147,5.03017 2.66994,9.36396 6.48652,19.1433 8.17541,50.476801 4.30924,79.949196 -2.26666,17.279678 -11.32787,61.5545687 -14.06131,68.7068297 -3.30581,8.6498093 2.40784,9.1708393 8.94572,0.8157583 2.97368,-3.8002183 13.2079,-13.5064283 19.2572,-18.2636393 11.12139,-8.7459797 13.49483,-11.0393297 21.73528,-21.0017887 10.03771,-12.13535 23.63896,-22.474711 37.24019,-28.309142 9.3381,-4.005699 9.363,-4.00713 12.4627,-0.713578 4.7087,5.00331 4.3281,14.470049 -0.8573,21.318148 -2.1796,2.87864 -4.3829,5.2339 -4.8962,5.2339 -2.1089,0 -2.3072,-3.56258 -0.466,-8.372139 1.6965,-4.43159 1.7162,-5.239419 0.1479,-6.052399 -0.9955,-0.516011 -2.8321,-0.221361 -4.0813,0.65477 -1.24922,0.876138 -4.80832,2.089348 -7.909,2.69603 -3.66249,0.716579 -8.23309,3.545409 -13.0452,8.073908 -4.07413,3.833972 -9.12418,8.55716 -11.22238,10.49596 -7.46046,6.893762 -20.97863,28.7312097 -23.38771,37.78087 -1.61536,6.068092 -1.91617,9.203201 -1.00169,10.438548 1.9721,2.663921 8.71564,0.3364 18.02781,-6.222328 4.57499,-3.222259 9.01586,-5.871678 9.86851,-5.887637 2.16823,-0.0406 6.59635,-6.7094423 7.75975,-11.68632125 2.1132,-9.04011105 13.8185,-26.17452975 19.1425,-28.02109975 3.32201,-1.152202 6.32931,2.797178 6.32931,8.3121 0,3.871039 -9.77141,20.9934487 -14.90811,26.1235077 -10.10523,10.0921213 1.27397,14.5072823 16.77171,6.5074723 19.4953,-10.0633213 32.018,-20.9177913 39.1246,-33.912611 9.8835,-18.07218 28.9706,-34.42417 40.1823,-34.42417 5.3621,0 9.0402,5.732121 11.2283,17.49879 2.5987,13.975109 2.5495,18.25947 -0.2484,21.68004 -2.9154,3.563951 -7.519,3.573809 -8.5291,0.01831 -0.431,-1.517568 0.1252,-6.072121 1.2362,-10.12122 6.6258,-24.148991 -14.6168,-22.2886 -31.7449,2.780168 -3.9291,5.75065 -7.1438,11.154661 -7.1438,12.008932 0,0.85426 -0.8394,1.9883087 -1.8654,2.5200977 -2.4113,1.249942 -8.0738,16.465944 -8.0738,21.6955953 0,2.217195 1.6337,6.49763 3.6304,9.512059 l 3.6304,5.480796 13.4526,-0.092 c 11.4555,-0.0784 14.928,-0.792839 23.3918,-4.813091 5.4666,-2.596604 10.8218,-5.764873 11.9006,-7.040583 1.0787,-1.27576 2.4143,-2.319531 2.9678,-2.319531 0.5536,0 6.1007,-3.415479 12.3271,-7.5899693 12.3155,-8.257051 16.2604,-12.752793 25.7371,-29.3316027 16.0541,-28.085081 68.1134,-98.787425 86.7484,-117.814105 2.9829,-3.04562 6.3777,-6.50022 7.544,-7.6769 2.5952,-2.61846 6.2179,-1.01654 6.1931,2.73853 -0.03,4.53305 -23.7551,37.19666 -27.004,37.1778 -1.5375,-0.009 -2.7954,0.77753 -2.7954,1.74766 0,0.97014 -1.9569,2.86831 -4.3484,4.21816 -2.3916,1.34985 -4.3484,3.051641 -4.3484,3.781761 0,0.73013 -9.6441,14.50265 -21.4314,30.605604 -11.7872,16.102949 -23.6634,33.05416 -26.3915,37.669348 -2.7281,4.615201 -6.0826,9.64788 -7.4545,11.183752 -1.3717,1.535869 -2.1918,3.202983 -1.8224,3.704709 0.7634,1.036291 13.784,-10.08503 22.8345,-19.503649 3.3261,-3.461401 6.719,-6.293451 7.5398,-6.293451 0.8209,0 2.5042,-1.510429 3.7411,-3.356509 1.2368,-1.846072 3.0409,-3.356502 4.0091,-3.356502 0.9683,0 4.2584,-1.977419 7.3113,-4.39426 3.8314,-3.032988 8.0312,-4.663168 13.5573,-5.26238 10.7578,-1.166469 12.3006,0.587581 11.359,12.913222 -0.6114,8.001439 -1.3496,10.03558 -5.5383,15.260169 -2.6582,3.315462 -6.7391,7.005632 -9.069,8.200369 -2.3296,1.194742 -5.913,3.167832 -7.963,4.384672 -5.5171,3.274852 -19.7431,9.1762817 -22.1206,9.1762817 -1.1368,0 -3.8376,2.136997 -6.0016,4.748879 -3.2898,3.97049905 -3.7915,5.518698 -3.0619,9.445432 0.4799,2.583119 2.5564,6.9709773 4.6143,9.7508353 3.6129,4.880475 4.0273,5.019553 12.0497,4.044035 8.1482,-0.990812 19.0228,-5.980121 25.4683,-11.6848553 1.7886,-1.583055 3.691,-2.928448 4.2275,-2.989717 0.5365,-0.0613 3.4914,-2.669569 6.5663,-5.79620095 3.0749,-3.12662105 8.4288,-8.31620105 11.8974,-11.53239075 3.4686,-3.216201 7.0313,-7.027227 7.9171,-8.468968 0.8858,-1.441731 2.6765,-2.621331 3.9793,-2.621331 1.3029,0 8.559,-5.664102 16.1249,-12.586901 7.5658,-6.922791 14.1188,-12.603689 14.5621,-12.624221 0.4433,-0.0205 2.2037,-1.514149 3.912,-3.319179 4.136,-4.3702 6.7038,-4.19095 8.6022,0.600459 1.7134,4.32476 1.2458,5.899012 -8.0467,27.090721 -2.4287,5.538232 -5.718,13.8455797 -7.31,18.4607807 -1.592,4.61520205 -4.0781,9.829933 -5.5244,11.588322 -4.5093,5.4816583 -3.396,7.7679573 3.2715,6.7184293 3.2457,-0.510921 8.4172,-1.932199 11.4922,-3.1584183 3.0749,-1.226204 7.5422,-2.781671 9.9273,-3.45658 2.3852,-0.674931 8.4454,-3.861523 13.4672,-7.08136195 9.0471,-5.80086005 9.1718,-5.97035205 13.6781,-18.58871175 4.5389,-12.709829 6.5697,-15.31022 17.0819,-21.8733 1.4272,-0.891061 4.0285,-3.9214 5.7805,-6.734069 4.1027,-6.586342 12.9207,-9.95281 18.2537,-6.968831 3.5067,1.96207 7.5367,10.34987 7.5367,15.68627 0,6.48903 1.3276,7.775329 6.951,6.734201 3.849,-0.712652 5.4731,-0.414911 5.4731,1.003348 0,4.57836 -2.8052,8.49621 -7.2377,10.108472 -3.5124,1.277591 -5.3812,3.32527 -7.3471,8.050239 -3.6278,8.7191687 -17.1026,28.151743 -23.6767,34.145024 -10.9103,9.946473 -15.0598,12.001045 -22.7245,11.252123 -9.5137,-0.929579 -11.0732,-2.93361 -11.0732,-14.229984 V 8.8190267 l -3.4165,2.4312983 c -16.5993,11.812233 -57.6579,25.015847 -61.5292,19.786486 -0.7691,-1.038939 -2.1924,-1.888998 -3.1629,-1.888998 -0.9705,0 -4.1735,-2.076831 -7.1176,-4.61519 -3.7978,-3.274216 -5.469,-5.934856 -5.752,-9.157026 l -0.3989,-4.541853 -9.9114,6.743094 c -5.4513,3.70871 -13.7346,7.829465 -18.4074,9.157245 -4.6727,1.32779 -9.5404,3.16928 -10.8172,4.09221 -3.7407,2.704381 -8.3741,1.957088 -14.6391,-2.361099 -10.2644,-7.074906 -15.9566,-18.8129683 -14.3582,-29.6085763 0.4045,-2.732583 0.1986,-4.952111 -0.4595,-4.952111 -1.2546,0 -22.1327,29.5338653 -29.1693,41.2624163 -5.9336,9.890149 -12.7849,13.804051 -13.7001,7.826481 -0.8711,-5.689161 0.6021,-10.530063 5.4848,-18.023311 5.2929,-8.122235 5.0599,-9.223976 -0.8689,-4.10935 -2.05,1.768443 -4.5658,3.69506 -5.5909,4.28135 -1.0249,0.586298 -4.8732,2.864509 -8.5516,5.06267 -9.8019,5.857571 -31.3573,11.249311 -41.1435,10.291371 -13.2025,-1.29237 -21.1216,-10.596161 -21.1216,-24.814898 0,-3.669853 -0.2907,-6.6724533 -0.6459,-6.6724533 -0.3552,0 -2.7313,1.7328623 -5.2802,3.8508203 -2.5488,2.117955 -8.5479,6.017683 -13.3311,8.666065 -4.7832,2.648394 -9.2989,5.430805 -10.0348,6.183135 -0.7359,0.75234 -5.7676,1.5284 -11.18161,1.724588 -10.20599,0.369822 -15.43437,-1.736709 -15.43437,-6.218494 0,-3.718372 -2.40895,-3.01834 -11.39674,3.311925 -21.78473,15.343341 -32.08724,13.31912 -32.08724,-6.304484 v -8.17863 l -5.90137,6.078248 c -3.2458,3.34304 -8.51379,7.929785 -11.70665,10.192756 -10.57727,7.49671 -17.65337,19.23025 -26.72318,44.311975 -7.92832,21.925111 -18.08313,47.371943 -20.42917,51.193373 -1.85462,3.02104 -7.29879,14.50205 -7.29879,15.39224 0,0.45593 -3.49425,7.68866 -7.76499,16.07277 -4.27075,8.38407 -9.14554,17.98408 -10.83292,21.33336 -1.68738,3.34923 -7.43947,13.46218 -12.78244,22.47318 -5.343,9.01102 -11.09798,19.1375 -12.78885,22.50329 -3.49253,6.95198 -19.41629,29.27977 -25.82783,36.21487 -2.34672,2.53836 -5.20515,4.61523 -6.35212,4.61523 -1.14694,0 -3.08282,0.72107 -4.30191,1.6024 -1.57721,1.14022 -3.42146,0.72956 -6.3936,-1.42362 z m 8.7735,-12.76569 c 0.85066,-1.38457 2.23713,-2.51738 3.08102,-2.51738 2.05118,0 21.42839,-27.43872 26.0836,-36.93514 3.4502,-7.03832 8.94207,-15.84497 15.05755,-24.14599 2.3083,-3.13324 7.40426,-12.60848 16.79567,-31.22922 1.63113,-3.23416 4.64296,-8.82269 6.69295,-12.41896 3.93163,-6.89742 6.26642,-12.14334 16.8779,-37.9222 9.29733,-22.586416 13.52693,-34.046705 13.54511,-36.701196 0.0172,-2.519 -6.70518,3.739711 -12.92987,12.038021 -1.9952,2.65983 -7.586,9.095785 -12.42399,14.302097 -10.66133,11.473018 -16.3372,18.315988 -25.45789,30.692728 -17.53071,23.78905 -32.01268,45.40128 -34.36053,51.27807 -1.41267,3.53597 -4.35092,8.96779 -6.52945,12.07074 -2.17852,3.10293 -6.26382,12.16549 -9.07846,20.13903 -4.27183,12.10172 -5.13858,16.29995 -5.24505,25.40598 -0.17925,15.32924 3.59006,22.94448 7.89144,15.94342 z M 1323.8869,14.829274 c 3.0954,-2.336958 6.3092,-5.3578173 7.1418,-6.7130083 0.8327,-1.355191 1.9556,-2.463969 2.4954,-2.463969 0.8457,0 14.8654,-17.9184507 14.8654,-18.9992607 0,-0.216641 -4.1016,-0.393901 -9.1147,-0.393901 -6.3637,0 -10.0554,-0.832559 -12.2314,-2.758541 -2.934,-2.596798 -3.2376,-2.567818 -5.1787,0.49439 -7.6715,12.1029917 -15.1999,30.46159 -13.7715,33.583361 1.3739,3.003061 10.2126,1.464591 15.7937,-2.749071 z M 1249.9577,2.5325547 c 6.9415,-12.4563 15.8047,-33.5322997 14.7184,-34.9996997 -0.3887,-0.52501 -3.2916,1.984179 -6.4509,5.57598 -3.1594,3.59179 -6.9431,7.663349 -8.4083,9.047911 -1.4652,1.38456 -7.4542,7.440028 -13.3087,13.4566077 -9.8905,10.164181 -10.5031,11.140871 -8.6444,13.785332 1.1002,1.5653593 3.8973,3.9235193 6.2158,5.2403613 5.8068,3.298158 8.3918,1.327229 15.8781,-12.1064923 z m -77.7013,-22.7943597 c 12.1811,-3.93278 24.4605,-11.10552 29.074,-16.983159 4.7495,-6.050712 4.9847,-9.64601 0.6871,-10.500852 -3.168,-0.630148 -29.977,17.769821 -36.2608,24.88707 -4.9004,5.55062 -3.8942,5.952681 6.4997,2.596941 z m 176.4437,-5.761339 c 2.8362,-1.49965 3.4166,-2.820651 3.4166,-7.776051 0,-4.639781 -0.6227,-6.294271 -2.7954,-7.427431 -2.1963,-1.1454 -3.4054,-0.594199 -5.6412,2.571462 -1.5649,2.21616 -3.6338,4.029379 -4.5971,4.029379 -2.3568,0 -4.1835,4.744619 -3.3949,8.817761 0.5301,2.73849 1.409,3.15903 5.1177,2.448859 2.4628,-0.47157 6.0152,-1.67037 7.8943,-2.663979 z M 424.42465,35.843303 c -1.70982,-0.930241 -3.30001,-4.071872 -4.26633,-8.428641 -1.30344,-5.876647 -1.22769,-8.085786 0.49213,-14.353998 l 2.03266,-7.4083673 h -7.86598 c -8.52387,0 -19.45921,-5.42345095 -23.70074,-11.754512 -3.94624,-5.8902807 -4.93287,-5.1697197 -14.90427,10.884681 -9.35863,15.0678093 -25.22723,28.3506463 -36.22374,30.3211363 -8.31903,1.49071 -9.70748,-0.90995 -9.32069,-16.115356 0.31115,-12.2318193 2.4398,-19.92320125 11.58679,-41.866261 0.57716,-1.384559 1.93331,-4.783019 3.01363,-7.55214 2.10738,-5.401569 9.82719,-14.265151 12.42436,-14.265151 2.84893,0 3.39966,6.72773 0.87035,10.631872 -2.99815,4.627769 -9.06228,16.8964 -9.06228,18.334339 0,0.602059 -1.59702,4.75335 -3.54887,9.2251317 -4.50846,10.328788 -7.41856,24.8646393 -5.49747,27.4596693 1.65378,2.23396 14.12196,-5.849971 21.68457,-14.0595503 7.14849,-7.75998095 18.4712,-27.0849297 22.77015,-38.8627007 2.59,-7.095821 4.53284,-10.366629 6.36773,-10.720261 3.75515,-0.72368 7.00907,4.137181 5.7954,8.657421 -1.8864,7.025719 -0.98599,15.90934 2.05579,20.28303 4.22,6.0678397 10.31068,8.2547617 19.69373,7.0711687 8.87661,-1.119709 10.40032,-2.204789 19.64277,-13.9882377 10.31161,-13.14651 14.55674,-17.978112 18.50372,-21.059981 7.73536,-6.039911 16.82699,-11.5882 25.57436,-15.607109 l 9.04581,-4.15603 2.87891,3.653409 c 4.35234,5.52323 4.00378,15.910189 -0.73674,21.954119 -1.98858,2.535351 -4.22489,4.60974 -4.96959,4.60974 -1.82671,0 -1.72521,-7.2185 0.1369,-9.73387 2.60281,-3.515918 -0.72311,-6.381728 -4.62164,-3.98227 -1.75897,1.082601 -4.49085,1.968371 -6.07078,1.968371 -3.63458,0 -15.94041,8.80723 -22.60759,16.18013 -2.80366,3.100441 -5.59906,5.63717 -6.21199,5.63721 -0.61296,2.9e-5 -2.76043,2.832079 -4.77216,6.293451 -2.01176,3.461358 -4.38785,6.8973297 -5.28021,7.6354697 -0.89236,0.73815 -1.62248,2.41082 -1.62248,3.717039 0,1.30621 -1.07624,3.15299905 -2.39167,4.10396005 -2.8991,2.09585095 -9.23682,19.56897225 -8.29739,22.87591725 1.15364,4.06101 7.01323,2.619139 17.66877,-4.347816 5.64695,-3.69216 10.77262,-6.713011 11.39037,-6.713011 2.24168,0 8.74093,-12.53904125 12.17826,-23.49555 0.43437,-1.384549 3.57881,-5.76961 6.9877,-9.744549 7.10801,-8.288372 10.82964,-8.740812 12.69582,-1.54346 1.53866,5.93407 -0.89506,11.847478 -10.39011,25.2457287 -3.80497,5.36915 -7.10337,10.4621913 -7.32975,11.3178803 -0.71681,2.70959 5.33141,4.649851 10.41972,3.342651 7.57809,-1.946881 25.27424,-11.8913513 32.85463,-18.46293225 3.75828,-3.25809705 7.92829,-6.69386805 9.26677,-7.63506805 2.31336,-1.6267297 14.99568,-22.2746407 20.89827,-34.0242417 2.22716,-4.433358 3.47649,-5.403188 6.48573,-5.034759 5.79001,0.708859 5.69439,7.333859 -0.24291,16.835631 -6.19239,9.909979 -20.16228,34.1499587 -23.40954,40.6192587 -5.44031,10.8383893 -5.08921,16.0054373 1.08762,16.0054373 3.33584,0 6.29846,-1.216829 18.21646,-7.482028 2.01181,-1.05759 10.58648,-7.702258 18.25985,-14.1498003 2.6249,-2.205598 6.64675,-7.308069 8.93746,-11.338819 4.1039,-7.2212487 10.24409,-16.3508797 22.74671,-33.8212587 7.16166,-10.007272 11.27342,-11.178021 11.93898,-3.399401 0.55679,6.50757 -3.89406,14.961521 -18.1083,34.39487 -12.76477,17.4516597 -15.5924,23.295639 -12.53709,25.910731 5.15175,4.409458 16.71452,-0.88451 30.82636,-14.1137513 4.41079,-4.134919 8.66095,-7.185599 9.44481,-6.779271 2.50761,1.299822 5.93521,-8.1912877 9.18842,-25.4427587 2.9727,-15.764211 3.36939,-16.814411 6.53799,-17.30792 4.59253,-0.71529 5.50624,4.80913 3.14605,19.02137 -1.85605,11.17646 -1.26891,14.63271 1.67243,9.84527 1.73202,-2.819091 20.27034,-19.709741 26.59544,-24.23164 2.04994,-1.46554 5.68397,-4.18221 8.07559,-6.037029 5.88669,-4.565431 10.10446,-5.850422 12.04873,-3.670721 2.59815,2.912721 1.89222,10.89892 -1.38576,15.67674 -1.65187,2.407711 -4.92313,8.299521 -7.2694,13.09293 -13.34386,27.2609807 -18.30234,37.73221 -18.30234,38.650359 0,3.002741 20.12754,-5.5774293 31.68118,-13.5053283 3.41657,-2.34442 8.16875,-6.28115 10.56037,-8.748299 5.6038,-5.7807917 15.56946,-13.5553317 17.37567,-13.5553317 0.88095,0 1.261,2.629651 1.02115,7.06569 -0.29162,5.3934597 -0.97012,7.2801287 -2.86684,7.9716997 -1.36662,0.498311 -4.72111,2.873581 -7.45439,5.27836105 -9.68571,8.52169995 -33.71112,26.15725525 -37.28583,27.36920625 -1.99493,0.67633 -6.05618,2.724459 -9.02499,4.551381 -3.55941,2.19034 -7.38248,3.148859 -11.22471,2.814288 l -5.82681,-0.507399 0.20423,-8.02046 c 0.14949,-5.869528 1.30469,-10.370267 4.30763,-16.7825373 2.25684,-4.819129 4.41457,-9.13967895 4.79494,-9.6012 0.38036,-0.461521 2.52804,-5.559211 4.77263,-11.3282087 3.06247,-7.87114 3.62371,-10.489081 2.24872,-10.489081 -4.65415,0 -27.84644,24.4656107 -35.02263,36.945429 -4.69776,8.16964 -14.91488,18.436918 -18.34687,18.436918 -2.71206,0 -3.33663,-0.76913 -3.33663,-4.109169 0,-2.260031 1.39771,-6.146377 3.10599,-8.636318 4.99211,-7.276269 3.61352,-10.2032913 -2.00665,-4.260551 -1.62962,1.723152 -5.98302,5.260742 -9.6742,7.861298 -5.72778,4.03538 -8.16697,4.728278 -16.64475,4.728278 -9.28878,0 -10.10605,-0.292348 -12.59258,-4.50478 -3.25464,-5.513644 -4.17108,-5.562615 -9.67515,-0.517093 -7.78965,7.140715 -19.89304,12.666406 -28.83913,13.166294 -7.91179,0.442081 -8.54173,0.198061 -11.50681,-4.456989 -2.67867,-4.20543 -3.02747,-6.0022 -2.38816,-12.302667 0.41175,-4.057899 0.33383,-7.08974 -0.17314,-6.73745 -0.50697,0.352321 -3.71716,2.361861 -7.13375,4.465671 -3.41659,2.103808 -9.07947,5.599449 -12.58417,7.768106 -10.59227,6.554348 -29.29691,5.96618 -30.92722,-0.972532 -0.78494,-3.340695 -4.86275,-4.450685 -6.135,-1.669944 -1.55474,3.398115 -24.31418,15.444836 -28.53965,15.106225 -0.73015,-0.0586 -2.55413,-0.773748 -4.05334,-1.589408 z m 985.15305,-2.772191 c -1.8449,-1.00557 -2.0966,-11.662696 -0.3107,-13.153668 0.6834,-0.570478 1.2425,-2.19769 1.2425,-3.616049 0,-1.41835 1.2579,-4.94538 2.7954,-7.8378293 1.5374,-2.89247 3.3544,-6.548019 4.0378,-8.12348095 0.6833,-1.57545105 3.096,-7.14275005 5.3617,-12.37177875 2.2656,-5.229021 3.8054,-9.93127 3.4218,-10.449441 -2.5853,-3.49218 -28.1469,22.67397875 -37.3587,38.24225 -11.0389,18.655928 -27.0466,23.063177 -17.5216,4.824072 11.4399,-21.9063233 16.3243,-34.755953 19.3918,-51.015342 3.1196,-16.535691 3.2205,-16.782521 6.86,-16.782521 3.3791,0 3.7269,0.54224 4.0825,6.364111 0.2138,3.50027 -0.425,10.113941 -1.4197,14.69704 -0.9945,4.583091 -1.405,8.669499 -0.9123,9.080921 0.4929,0.411408 2.5818,-1.29336 4.6421,-3.788381 2.0604,-2.495029 5.6505,-5.981369 7.9781,-7.747421 2.3275,-1.766078 6.2691,-5.353349 8.759,-7.971708 2.4901,-2.618372 5.0703,-4.760682 5.7338,-4.760682 0.6637,0 2.7122,-1.59956 4.5521,-3.55459 5.3932,-5.73065 15.5485,-10.368999 17.6193,-8.047529 3.3199,3.721899 1.8527,10.178161 -5.0996,22.4391 -3.7582,6.628109 -6.8331,12.6212 -6.8331,13.318001 0,0.696788 -3.1208,7.3521087 -6.935,14.7895887 -9.1157,17.7753593 -9.2475,18.3313313 -4.0671,17.1616103 10.0161,-2.261599 34.2898,-16.5432103 39.8942,-23.4719303 1.534,-1.8965097 5.7387,-5.6725797 9.3441,-8.3912607 5.586,-4.212399 6.7262,-4.573029 7.7133,-2.439649 0.6369,1.376889 0.8247,4.397751 0.4169,6.713019 -1.0162,5.7711107 -1.5156,6.7269517 -3.5147,6.7269517 -0.9505,0 -4.1714,2.227519 -7.1577,4.950029 -10.2153,9.312841 -32.3378,24.8874073 -45.2424,31.8514283 -6.0188,3.24807 -13.8975,4.314489 -17.4738,2.365139 z"
       id="path5100"
       inkscape:connector-curvature="0" />
  </g>
</svg>
